<?xml version="1.0" encoding="UTF-8"?>
<svg width="60px" height="60px" viewBox="0 0 60 60" version="1.1" xmlns="http://www.w3.org/2000/svg" xmlns:xlink="http://www.w3.org/1999/xlink">
    <title>Download</title>
    <defs>
        <rect id="path-1" x="0" y="0" width="60" height="60"></rect>
    </defs>
    <g id="Page-1" stroke="none" stroke-width="1" fill="none" fill-rule="evenodd">
        <g id="Query-Database-Main-waiting-hover" transform="translate(-1684.000000, -976.000000)">
            <g id="Download" transform="translate(1684.000000, 976.000000)">
                <mask id="mask-2" fill="white">
                    <use xlink:href="#path-1"></use>
                </mask>
                <g id="tray.and.arrow.down.fill-(Background/Mask)"></g>
                <path d="M31.3560268,30.0878906 L37.6653181,24.0046038 C37.9854911,23.6844308 38.1738281,23.3454241 38.1738281,22.8745815 C38.1738281,21.9893973 37.4581473,21.367885 36.5917969,21.367885 C36.1586217,21.367885 35.7254464,21.5373884 35.4241071,21.8763951 L32.7873884,24.6826172 L31.6196987,26.0763114 L31.7703683,23.2700893 L31.7703683,7.26143973 C31.7703683,6.31975446 30.9793527,5.52873884 30,5.52873884 C29.039481,5.52873884 28.2484654,6.31975446 28.2484654,7.26143973 L28.2484654,23.2700893 L28.3803013,26.0763114 L27.2126116,24.6826172 L24.5947266,21.8763951 C24.2933873,21.5373884 23.8413783,21.367885 23.4082031,21.367885 C22.5418527,21.367885 21.8450056,21.9893973 21.8450056,22.8745815 C21.8450056,23.3454241 22.0145089,23.6844308 22.3346819,24.0046038 L28.6628069,30.0878906 C29.1148158,30.5398996 29.5479911,30.6905692 30,30.6905692 C30.4708426,30.6905692 30.8851842,30.5398996 31.3560268,30.0878906 Z M46.1028181,49.2606027 C50.1897321,49.2606027 52.3179408,47.1512277 52.3179408,43.1208147 L52.3179408,32.3291016 C52.3179408,30.4268973 52.0731027,29.4852121 51.2067522,28.2986886 L44.9539621,19.8423549 C42.7692522,16.8666295 41.2437221,15.4352679 37.797154,15.4352679 L35.2546038,15.4352679 L35.2546038,18.5239955 L37.9854911,18.5239955 C39.3038504,18.5239955 40.6222098,19.6163504 41.4508929,20.7275391 L47.8543527,29.6547154 C48.4946987,30.5022321 48.2686942,30.8600725 47.3081752,30.8600725 L36.0644531,30.8600725 C34.9720982,30.8600725 34.4824219,31.6134208 34.4824219,32.4232701 L34.4824219,32.4986049 C34.4824219,34.7021484 32.7685547,37.0751953 30,37.0751953 C27.2314453,37.0751953 25.5175781,34.7021484 25.5175781,32.4986049 L25.5175781,32.4232701 C25.5175781,31.6134208 25.0279018,30.8600725 23.9355469,30.8600725 L12.6918248,30.8600725 C11.7124721,30.8600725 11.524135,30.445731 12.1268136,29.6547154 L18.5302734,20.7275391 C19.3777902,19.6163504 20.6961496,18.5239955 22.0145089,18.5239955 L24.7453962,18.5239955 L24.7453962,15.4352679 L22.1840123,15.4352679 C18.7374442,15.4352679 17.2307478,16.8666295 15.0460379,19.8423549 L8.77441406,28.2986886 C7.90806362,29.4852121 7.68205915,30.4268973 7.68205915,32.3291016 L7.68205915,43.1208147 C7.68205915,47.1512277 9.81026786,49.2606027 13.8783482,49.2606027 L46.1028181,49.2606027 Z" id="tray.and.arrow.down.fill" fill="#181EFF" mask="url(#mask-2)"></path>
            </g>
        </g>
    </g>
</svg>