<?xml version="1.0" encoding="UTF-8"?>
<svg width="60px" height="60px" viewBox="0 0 60 60" version="1.1" xmlns="http://www.w3.org/2000/svg" xmlns:xlink="http://www.w3.org/1999/xlink">
    <title>arrow.forward.circle.fill</title>
    <defs>
        <rect id="path-1" x="0" y="0" width="60" height="60"></rect>
    </defs>
    <g id="Page-1" stroke="none" stroke-width="1" fill="none" fill-rule="evenodd">
        <g id="Query-Database" transform="translate(-1768.000000, -366.000000)">
            <g id="arrow.forward.circle.fill" transform="translate(1768.000000, 366.000000)">
                <mask id="mask-2" fill="white">
                    <use xlink:href="#path-1"></use>
                </mask>
                <g id="arrow.forward.circle.fill-(Background/Mask)"></g>
                <path d="M49,29.5 C49,18.8259188 40.1594973,10 29.4717255,10 C18.8028033,10 10,18.8259188 10,29.5 C10,40.1740812 18.821653,49 29.4905752,49 C40.178347,49 49,40.1740812 49,29.5 Z M38.9531174,30.9144101 L32.2991783,37.4584139 C31.959884,37.7790135 31.5828903,37.9487427 31.0927985,37.9487427 C30.1691638,37.9487427 29.5094248,37.2509671 29.5094248,36.3080271 C29.5094248,35.8365571 29.6979217,35.4028046 30.0183664,35.1010638 L32.3934268,32.8380077 L34.5799903,31.0841393 L30.5650072,31.2727273 L21.0459159,31.2727273 C20.0280329,31.2727273 19.3117448,30.5183752 19.3117448,29.5 C19.3117448,28.462766 20.0468826,27.7084139 21.0459159,27.7084139 L30.5650072,27.7084139 L34.5799903,27.8970019 L32.3745771,26.1431335 L30.0183664,23.8800774 C29.7167714,23.5783366 29.5094248,23.1445841 29.5094248,22.6731141 C29.5094248,21.7301741 30.1691638,21.0512573 31.0927985,21.0512573 C31.5828903,21.0512573 31.959884,21.1832689 32.2991783,21.5227273 L38.9531174,28.0855899 C39.4243596,28.5193424 39.6128565,28.9530948 39.6128565,29.4811412 C39.6128565,30.0469052 39.4055099,30.4806576 38.9531174,30.9144101 Z" fill="#181EFF" mask="url(#mask-2)"></path>
            </g>
        </g>
    </g>
</svg>