<?xml version="1.0" encoding="UTF-8"?>
<svg width="60px" height="60px" viewBox="0 0 60 60" version="1.1" xmlns="http://www.w3.org/2000/svg" xmlns:xlink="http://www.w3.org/1999/xlink">
    <title>Upload</title>
    <defs>
        <rect id="path-1" x="0" y="0" width="60" height="60"></rect>
    </defs>
    <g id="Page-1" stroke="none" stroke-width="1" fill="none" fill-rule="evenodd">
        <g id="Query-Database-Main-waiting-hover" transform="translate(-1768.000000, -976.000000)">
            <g id="Upload" transform="translate(1768.000000, 976.000000)">
                <mask id="mask-2" fill="white">
                    <use xlink:href="#path-1"></use>
                </mask>
                <g id="icloud.and.arrow.up.fill-(Background/Mask)"></g>
                <path d="M28.1919643,41.1432757 L28.1919643,30.6717355 L28.3238002,27.9785156 L27.2314453,29.296875 L24.6135603,32.1030971 C24.312221,32.4421038 23.8413783,32.6304408 23.3893694,32.6304408 C22.5041853,32.6304408 21.7885045,31.9712612 21.7885045,31.0672433 C21.7885045,30.5964007 21.9768415,30.2385603 22.2970145,29.9183873 L28.6251395,23.8162667 C29.0959821,23.3642578 29.5103237,23.2135882 30,23.2135882 C30.4708426,23.2135882 30.9040179,23.3642578 31.3560268,23.8162667 L37.6841518,29.9183873 C38.0231585,30.2385603 38.1926618,30.5964007 38.1926618,31.0672433 C38.1926618,31.9712612 37.476981,32.6304408 36.5729632,32.6304408 C36.1397879,32.6304408 35.687779,32.4421038 35.367606,32.1030971 L32.749721,29.296875 L31.6573661,27.9785156 L31.8080357,30.6717355 L31.8080357,41.1432757 L44.7091239,41.1432757 C50.2839007,41.1432757 54.0694754,37.7155413 54.0694754,33.007115 C54.0694754,29.1085379 51.7905971,25.6808036 48.0426897,24.1552734 C48.0615234,15.6424386 41.9217355,9.50265067 34.0304129,9.50265067 C29.0206473,9.50265067 25.2539062,12.0828683 22.8996931,15.491769 C18.3984375,14.3805804 13.0873326,17.789481 12.8989955,23.1005859 C8.58607701,23.8539342 5.93052455,27.6583426 5.93052455,32.1219308 C5.93052455,37.1128627 10.0927734,41.1432757 16.3643973,41.1432757 L28.1919643,41.1432757 Z M31.7515346,49.109933 L31.7515346,40.35226 C31.7138672,41.2374442 30.960519,42.0284598 30,42.0284598 C29.0206473,42.0284598 28.2672991,41.2374442 28.2296317,40.35226 L28.2296317,49.109933 C28.2296317,50.0327846 29.0206473,50.8426339 30,50.8426339 C30.960519,50.8426339 31.7515346,50.0327846 31.7515346,49.109933 Z" id="icloud.and.arrow.up.fill" fill="#181EFF" mask="url(#mask-2)"></path>
            </g>
        </g>
    </g>
</svg>